<?xml version="1.0" encoding="UTF-8"?>
<svg xmlns="http://www.w3.org/2000/svg" xmlns:xlink="http://www.w3.org/1999/xlink" width="595.275591pt" height="841.889764pt" viewBox="0 0 595.275591 841.889764" version="1.2">
<g id="surface67269">
<path style=" stroke:none;fill-rule:nonzero;fill:rgb(100%,100%,100%);fill-opacity:1;" d="M 0 0 L 595.277344 0 L 595.277344 841.890625 L 0 841.890625 Z M 0 0 "/>
<path style="fill:none;stroke-width:0.5;stroke-linecap:butt;stroke-linejoin:miter;stroke:rgb(25.098039%,62.745098%,100%);stroke-opacity:1;stroke-miterlimit:10;" d="M 0 80 L 595.277344 80 M 0 104 L 595.277344 104 M 0 128 L 595.277344 128 M 0 152 L 595.277344 152 M 0 176 L 595.277344 176 M 0 200 L 595.277344 200 M 0 224 L 595.277344 224 M 0 248 L 595.277344 248 M 0 272 L 595.277344 272 M 0 296 L 595.277344 296 M 0 320 L 595.277344 320 M 0 344 L 595.277344 344 M 0 368 L 595.277344 368 M 0 392 L 595.277344 392 M 0 416 L 595.277344 416 M 0 440 L 595.277344 440 M 0 464 L 595.277344 464 M 0 488 L 595.277344 488 M 0 512 L 595.277344 512 M 0 536 L 595.277344 536 M 0 560 L 595.277344 560 M 0 584 L 595.277344 584 M 0 608 L 595.277344 608 M 0 632 L 595.277344 632 M 0 656 L 595.277344 656 M 0 680 L 595.277344 680 M 0 704 L 595.277344 704 M 0 728 L 595.277344 728 M 0 752 L 595.277344 752 M 0 776 L 595.277344 776 "/>
<path style="fill:none;stroke-width:0.5;stroke-linecap:butt;stroke-linejoin:miter;stroke:rgb(100%,0%,50.196078%);stroke-opacity:1;stroke-miterlimit:10;" d="M 72 0 L 72 841.890625 "/>
<path style="fill:none;stroke-width:0.85;stroke-linecap:round;stroke-linejoin:round;stroke:rgb(0%,75.294118%,100%);stroke-opacity:1;comp-op:src;clip-to-self:true;stroke-miterlimit:10;" d="M 157.371094 79.632812 L 157.152344 79.410156 L 156.933594 79.191406 L 156.496094 78.96875 L 156.054688 78.75 L 155.617188 78.53125 L 155.398438 78.308594 L 154.960938 78.089844 L 154.304688 77.867188 L 151.894531 77.867188 L 151.015625 77.648438 L 136.558594 77.648438 L 136.117188 77.867188 L 135.898438 78.089844 L 135.679688 78.308594 L 135.460938 78.53125 L 135.023438 78.96875 L 134.804688 79.191406 L 134.585938 79.410156 L 134.148438 80.292969 L 133.925781 80.734375 L 133.707031 81.171875 L 133.707031 81.613281 L 133.488281 82.273438 L 133.488281 92.1875 L 133.707031 93.507812 L 133.925781 94.832031 L 133.925781 96.152344 L 134.148438 97.472656 L 134.148438 102.320312 L 134.367188 103.640625 L 134.367188 106.726562 L 134.585938 108.046875 L 134.585938 110.46875 L 134.804688 111.792969 L 134.804688 113.332031 L 135.023438 115.097656 L 135.023438 118.398438 L 135.242188 119.941406 L 135.242188 147.699219 L 135.460938 149.019531 L 135.460938 155.847656 L 135.898438 158.050781 L 135.898438 159.152344 L 136.117188 160.03125 L 136.335938 160.914062 L 136.335938 161.796875 L 136.558594 162.675781 L 136.558594 164.660156 L 136.777344 165.320312 L 136.777344 178.976562 L 136.558594 179.199219 L 136.335938 179.636719 L 136.117188 180.078125 L 135.898438 180.296875 L 135.898438 182.5 L 136.117188 182.722656 L 136.335938 182.941406 L 136.777344 183.164062 L 137.214844 183.382812 L 137.871094 183.601562 L 138.527344 183.824219 L 139.40625 184.042969 L 145.976562 184.042969 L 148.605469 183.824219 L 156.496094 183.824219 "/>
<path style="fill:none;stroke-width:0.85;stroke-linecap:round;stroke-linejoin:round;stroke:rgb(0%,75.294118%,100%);stroke-opacity:1;comp-op:src;clip-to-self:true;stroke-miterlimit:10;" d="M 167.886719 87.5625 L 167.667969 87.339844 L 167.449219 87.121094 L 167.230469 86.898438 L 166.792969 86.679688 L 162.410156 86.679688 L 161.535156 86.898438 L 160.65625 87.121094 L 160 87.339844 L 159.34375 87.5625 L 158.90625 87.78125 L 158.464844 88 L 158.027344 88.222656 L 157.589844 88.441406 L 157.152344 88.882812 L 156.933594 89.101562 L 156.496094 89.984375 L 156.273438 90.425781 L 156.273438 92.847656 L 156.496094 93.507812 L 156.714844 94.167969 L 156.933594 94.832031 L 157.808594 96.152344 L 158.464844 96.8125 L 159.125 97.253906 L 159.78125 97.914062 L 160.4375 98.355469 L 161.316406 98.796875 L 162.191406 99.015625 L 162.847656 99.234375 L 163.722656 99.457031 L 164.820312 99.457031 L 165.914062 99.234375 L 167.011719 99.015625 "/>
<path style="fill:none;stroke-width:0.85;stroke-linecap:round;stroke-linejoin:round;stroke:rgb(0%,75.294118%,100%);stroke-opacity:1;comp-op:src;clip-to-self:true;stroke-miterlimit:10;" d="M 182.566406 90.867188 L 182.128906 89.984375 L 181.910156 89.765625 L 181.691406 89.324219 L 181.253906 88.882812 L 180.8125 88.441406 L 180.375 88.222656 L 179.9375 88 L 179.5 87.78125 L 179.28125 87.5625 L 178.84375 87.339844 L 178.402344 87.121094 L 177.964844 87.121094 L 177.527344 87.339844 L 177.089844 87.5625 L 176.871094 87.78125 L 176.433594 88.222656 L 176.214844 88.664062 L 175.773438 89.101562 L 175.117188 90.425781 L 174.679688 91.746094 L 174.679688 94.390625 L 175.335938 96.371094 L 175.992188 97.695312 L 176.214844 98.132812 L 176.433594 98.355469 L 176.871094 98.574219 L 177.527344 98.796875 L 178.183594 99.015625 L 179.9375 99.015625 L 180.8125 98.796875 L 181.472656 98.574219 L 182.128906 98.355469 L 182.785156 97.914062 L 183.222656 97.695312 L 183.664062 97.253906 L 184.101562 96.8125 L 184.320312 96.371094 L 184.539062 95.933594 L 184.976562 95.050781 L 184.976562 93.289062 L 184.539062 92.40625 L 184.320312 92.1875 L 184.101562 91.746094 L 183.882812 91.527344 L 183.441406 91.304688 L 183.003906 90.867188 L 182.785156 90.425781 "/>
<path style="fill:none;stroke-width:0.85;stroke-linecap:round;stroke-linejoin:round;stroke:rgb(0%,75.294118%,100%);stroke-opacity:1;comp-op:src;clip-to-self:true;stroke-miterlimit:10;" d="M 196.371094 89.542969 L 195.929688 89.101562 L 195.492188 88.882812 L 194.835938 88.664062 L 194.179688 88.441406 L 190.234375 88.441406 L 189.578125 88.664062 L 188.703125 89.101562 L 188.261719 89.542969 L 188.042969 89.765625 L 187.605469 90.203125 L 187.605469 90.644531 L 187.824219 91.085938 L 188.480469 91.527344 L 189.578125 92.1875 L 190.890625 92.847656 L 193.523438 93.730469 L 194.617188 93.949219 L 195.492188 94.167969 L 196.589844 94.609375 L 197.464844 94.832031 L 198.121094 95.050781 L 198.78125 95.492188 L 199.21875 95.933594 L 199.65625 96.371094 L 199.875 96.8125 L 199.875 97.253906 L 199.65625 97.695312 L 199 98.132812 L 198.121094 98.796875 L 196.808594 99.457031 L 194.835938 99.898438 L 192.863281 100.335938 L 190.890625 100.558594 L 189.578125 100.777344 L 188.480469 101 L 186.949219 101.21875 L 185.414062 101.4375 L 183.882812 101.660156 "/>
<path style="fill:none;stroke-width:0.85;stroke-linecap:round;stroke-linejoin:round;stroke:rgb(0%,75.294118%,100%);stroke-opacity:1;comp-op:src;clip-to-self:true;stroke-miterlimit:10;" d="M 215.648438 77.867188 L 214.773438 79.632812 L 214.335938 80.292969 L 213.898438 81.613281 L 213.460938 82.496094 L 213.238281 83.375 L 213.019531 84.257812 L 212.800781 85.136719 L 212.363281 87.339844 L 212.363281 90.867188 L 212.582031 91.746094 L 212.800781 92.628906 L 213.238281 93.289062 L 213.679688 93.949219 L 214.117188 94.609375 L 214.554688 95.050781 L 215.210938 95.492188 L 215.648438 95.710938 L 216.308594 95.933594 L 217.402344 95.933594 L 218.71875 95.710938 L 220.46875 95.269531 L 222.222656 94.609375 L 223.976562 93.730469 L 225.289062 92.847656 L 226.824219 91.527344 L 228.578125 89.984375 L 230.546875 88.441406 L 232.082031 86.898438 L 233.617188 85.578125 L 234.929688 84.257812 L 235.808594 83.15625 L 236.683594 82.273438 L 237.558594 81.171875 L 238.4375 80.070312 L 239.09375 79.191406 L 239.53125 78.308594 "/>
<path style="fill:none;stroke-width:0.85;stroke-linecap:round;stroke-linejoin:round;stroke:rgb(0%,75.294118%,100%);stroke-opacity:1;comp-op:src;clip-to-self:true;stroke-miterlimit:10;" d="M 224.851562 76.988281 L 224.851562 77.648438 L 224.632812 78.308594 L 224.414062 79.191406 L 224.195312 80.292969 L 223.757812 81.613281 L 223.097656 83.375 L 222.441406 85.578125 L 221.128906 89.101562 L 220.46875 91.304688 L 219.8125 93.730469 L 219.15625 96.152344 L 218.71875 98.574219 L 218.058594 101.21875 L 216.746094 106.945312 "/>
<path style="fill:none;stroke-width:0.85;stroke-linecap:round;stroke-linejoin:round;stroke:rgb(0%,75.294118%,100%);stroke-opacity:1;comp-op:src;clip-to-self:true;stroke-miterlimit:10;" d="M 295.839844 86.898438 L 295.402344 86.679688 L 294.960938 86.460938 L 294.085938 86.460938 L 293.429688 86.238281 L 292.773438 86.019531 L 287.292969 86.019531 L 286.855469 86.238281 L 286.855469 86.679688 L 287.074219 86.898438 L 287.511719 87.78125 L 287.734375 88.222656 L 287.953125 88.664062 L 288.171875 89.101562 L 289.921875 90.867188 L 290.363281 91.304688 L 291.238281 92.1875 L 291.675781 92.847656 L 292.113281 93.730469 L 292.332031 94.167969 L 292.332031 95.933594 L 292.113281 96.371094 L 291.894531 96.8125 L 291.675781 97.035156 L 290.800781 97.472656 L 290.144531 97.695312 L 289.265625 97.914062 L 282.472656 97.914062 L 282.035156 97.695312 L 281.816406 97.472656 "/>
<path style="fill:none;stroke-width:0.85;stroke-linecap:round;stroke-linejoin:round;stroke:rgb(0%,75.294118%,100%);stroke-opacity:1;comp-op:src;clip-to-self:true;stroke-miterlimit:10;" d="M 303.507812 87.5625 L 303.507812 88 L 303.726562 88.664062 L 303.726562 89.101562 L 303.945312 89.765625 L 304.164062 90.425781 L 304.164062 98.574219 "/>
<path style="fill:none;stroke-width:0.85;stroke-linecap:round;stroke-linejoin:round;stroke:rgb(0%,75.294118%,100%);stroke-opacity:1;comp-op:src;clip-to-self:true;stroke-miterlimit:10;" d="M 305.042969 78.089844 L 305.042969 78.089844 "/>
<path style="fill:none;stroke-width:0.85;stroke-linecap:round;stroke-linejoin:round;stroke:rgb(0%,75.294118%,100%);stroke-opacity:1;comp-op:src;clip-to-self:true;stroke-miterlimit:10;" d="M 315.121094 88.222656 L 315.121094 88.664062 L 314.898438 89.324219 L 314.898438 90.203125 L 314.679688 90.867188 L 314.679688 91.527344 L 314.460938 92.1875 L 314.460938 93.507812 L 314.242188 94.167969 L 313.804688 95.933594 L 313.804688 96.59375 L 313.585938 97.253906 L 313.585938 97.695312 L 313.367188 98.132812 L 313.367188 99.015625 L 313.148438 99.457031 L 313.148438 96.152344 L 313.367188 95.269531 L 313.804688 93.949219 L 314.023438 93.066406 L 314.460938 92.40625 L 315.121094 91.527344 L 315.777344 90.867188 L 316.433594 90.203125 L 317.308594 89.542969 L 317.96875 88.882812 L 319.28125 88 L 319.71875 87.78125 L 320.160156 87.5625 L 321.472656 87.5625 L 321.910156 87.78125 L 322.347656 88.222656 L 322.570312 88.664062 L 323.007812 89.324219 L 323.226562 89.984375 L 323.445312 90.867188 L 323.664062 91.746094 L 323.664062 98.355469 "/>
<path style="fill:none;stroke-width:0.85;stroke-linecap:round;stroke-linejoin:round;stroke:rgb(0%,75.294118%,100%);stroke-opacity:1;comp-op:src;clip-to-self:true;stroke-miterlimit:10;" d="M 352.148438 72.800781 L 352.148438 73.902344 L 351.925781 74.566406 L 351.707031 75.226562 L 351.488281 76.105469 L 351.269531 77.207031 L 350.832031 78.308594 L 350.394531 79.632812 L 349.738281 81.171875 L 348.859375 83.15625 L 347.984375 85.136719 L 347.105469 87.121094 L 346.230469 88.882812 L 345.355469 90.867188 L 344.699219 92.847656 L 344.039062 94.832031 L 343.382812 96.59375 L 342.726562 98.132812 L 342.066406 99.675781 L 341.410156 101 L 340.753906 102.320312 L 340.316406 103.421875 L 339.878906 104.300781 L 339.4375 105.183594 "/>
<path style="fill:none;stroke-width:0.85;stroke-linecap:round;stroke-linejoin:round;stroke:rgb(0%,75.294118%,100%);stroke-opacity:1;comp-op:src;clip-to-self:true;stroke-miterlimit:10;" d="M 340.535156 78.96875 L 340.753906 79.410156 L 340.753906 90.644531 L 341.191406 91.964844 L 341.410156 92.628906 L 341.847656 93.949219 L 342.066406 94.390625 L 342.289062 94.832031 L 342.507812 95.269531 L 342.726562 95.492188 L 343.164062 95.710938 L 343.601562 95.933594 L 346.230469 95.933594 L 347.328125 95.710938 L 348.421875 95.492188 L 349.515625 95.050781 L 350.394531 94.609375 L 351.269531 94.167969 L 352.367188 93.507812 L 353.242188 93.066406 L 354.117188 92.628906 L 354.996094 91.964844 L 356.746094 90.644531 L 357.40625 89.984375 L 358.0625 89.324219 L 358.5 88.441406 L 358.9375 87.78125 L 359.15625 86.898438 L 359.375 86.238281 L 359.597656 85.578125 L 359.597656 83.597656 "/>
<path style="fill:none;stroke-width:0.85;stroke-linecap:round;stroke-linejoin:round;stroke:rgb(0%,75.294118%,100%);stroke-opacity:1;comp-op:src;clip-to-self:true;stroke-miterlimit:10;" d="M 424.886719 79.851562 L 424.886719 79.410156 L 424.667969 79.191406 L 424.230469 78.75 L 423.789062 78.308594 L 422.914062 77.867188 L 421.820312 77.648438 L 419.628906 77.648438 L 418.53125 77.867188 L 417.4375 78.089844 L 416.121094 78.53125 L 414.808594 78.96875 L 413.492188 79.410156 L 412.179688 80.070312 L 411.082031 80.734375 L 409.988281 81.394531 L 409.113281 82.273438 L 408.453125 83.15625 L 407.796875 84.035156 L 407.140625 85.136719 L 406.703125 86.238281 L 406.480469 87.339844 L 406.261719 88.222656 L 406.042969 89.101562 L 405.824219 90.203125 L 405.605469 91.085938 L 405.605469 93.507812 L 405.824219 94.167969 L 406.042969 94.832031 L 406.480469 95.492188 L 406.921875 96.152344 L 407.796875 96.8125 L 408.671875 97.253906 L 409.550781 97.472656 L 410.644531 97.695312 L 412.617188 97.695312 L 413.492188 97.472656 L 414.371094 97.035156 L 415.246094 96.59375 L 416.121094 95.933594 L 417 95.269531 L 418.75 93.949219 L 419.628906 93.289062 L 420.722656 92.40625 L 421.601562 91.527344 L 422.476562 90.644531 L 423.351562 89.542969 L 424.230469 88.441406 L 424.886719 87.339844 L 425.324219 86.238281 L 425.761719 85.359375 L 425.980469 84.476562 L 426.199219 83.816406 L 426.421875 82.933594 L 426.421875 80.292969 L 426.199219 79.410156 L 425.761719 78.53125 L 424.886719 77.648438 "/>
<path style="fill:none;stroke-width:0.85;stroke-linecap:round;stroke-linejoin:round;stroke:rgb(0%,75.294118%,100%);stroke-opacity:1;comp-op:src;clip-to-self:true;stroke-miterlimit:10;" d="M 478.785156 83.816406 L 479.003906 84.035156 L 479.222656 84.257812 L 479.441406 84.699219 L 479.660156 85.136719 L 480.097656 85.800781 L 480.535156 86.460938 L 480.976562 87.121094 L 481.632812 88 L 483.382812 89.765625 L 484.261719 90.644531 L 485.136719 91.304688 L 486.234375 92.1875 L 487.109375 92.847656 L 488.203125 93.730469 L 489.300781 94.390625 L 490.613281 95.050781 L 491.710938 95.710938 L 492.804688 96.152344 L 493.683594 96.59375 L 494.558594 97.035156 "/>
<path style="fill:none;stroke-width:0.85;stroke-linecap:round;stroke-linejoin:round;stroke:rgb(0%,75.294118%,100%);stroke-opacity:1;comp-op:src;clip-to-self:true;stroke-miterlimit:10;" d="M 489.519531 83.15625 L 489.082031 84.476562 L 488.644531 85.359375 L 487.984375 86.460938 L 487.328125 87.78125 L 486.453125 88.882812 L 485.574219 90.203125 L 484.699219 91.527344 L 484.042969 92.847656 L 483.164062 94.609375 L 482.507812 96.152344 L 481.195312 98.355469 L 480.535156 99.234375 L 479.878906 100.117188 L 479.441406 100.777344 "/>
<path style="fill:none;stroke-width:0.85;stroke-linecap:round;stroke-linejoin:round;stroke:rgb(0%,75.294118%,100%);stroke-opacity:1;comp-op:src;clip-to-self:true;stroke-miterlimit:10;" d="M 501.570312 95.710938 L 501.570312 98.796875 L 501.132812 101.4375 L 500.914062 102.980469 L 500.914062 104.523438 L 500.691406 106.066406 L 500.472656 107.167969 L 500.472656 108.046875 L 500.253906 108.929688 L 500.253906 110.25 "/>
<path style="fill:none;stroke-width:0.85;stroke-linecap:round;stroke-linejoin:round;stroke:rgb(0%,75.294118%,100%);stroke-opacity:1;comp-op:src;clip-to-self:true;stroke-miterlimit:10;" d="M 497.84375 96.59375 L 503.101562 96.59375 L 504.199219 96.8125 L 505.074219 97.035156 L 505.953125 97.253906 L 506.609375 97.472656 L 507.265625 97.695312 L 508.140625 98.132812 L 508.582031 98.574219 L 508.800781 99.015625 L 508.800781 99.898438 L 508.582031 100.117188 L 508.363281 100.558594 L 507.921875 101 L 507.265625 101.4375 L 506.171875 101.878906 L 505.292969 102.320312 L 504.199219 102.761719 L 503.324219 102.980469 L 502.445312 103.199219 L 501.789062 103.421875 L 501.351562 103.640625 L 501.132812 103.863281 L 500.914062 104.082031 L 501.132812 104.300781 L 501.570312 104.523438 L 502.445312 104.964844 L 503.980469 105.402344 L 505.953125 106.066406 L 507.484375 106.503906 L 509.019531 106.945312 L 511.210938 107.386719 L 513.402344 108.046875 L 515.152344 108.707031 L 516.25 109.148438 L 517.5625 109.808594 "/>
<path style="fill:none;stroke-width:0.85;stroke-linecap:round;stroke-linejoin:round;stroke:rgb(0%,75.294118%,100%);stroke-opacity:1;comp-op:src;clip-to-self:true;stroke-miterlimit:10;" d="M 149.921875 120.164062 L 154.304688 120.164062 L 155.617188 119.941406 L 156.496094 119.941406 "/>
<path style="fill:none;stroke-width:0.85;stroke-linecap:round;stroke-linejoin:round;stroke:rgb(0%,75.294118%,100%);stroke-opacity:1;comp-op:src;clip-to-self:true;stroke-miterlimit:10;" d="M 169.203125 114.214844 L 165.257812 114.214844 L 164.601562 114.433594 L 164.164062 114.65625 L 163.722656 114.875 L 162.847656 115.757812 L 162.628906 116.199219 L 162.410156 116.636719 L 162.191406 117.078125 L 162.191406 118.179688 L 162.628906 119.0625 L 163.066406 119.722656 L 163.722656 120.164062 L 164.601562 120.601562 L 165.695312 121.042969 L 167.011719 121.484375 L 168.324219 121.703125 L 173.582031 121.703125 L 173.144531 122.367188 L 172.269531 123.027344 L 171.171875 123.6875 L 170.078125 124.566406 L 168.765625 125.230469 L 167.449219 125.667969 L 165.914062 126.332031 L 164.601562 126.992188 L 163.285156 127.433594 L 161.972656 127.871094 L 160.875 128.09375 L 160 128.3125 L 158.90625 128.3125 L 158.464844 128.09375 "/>
<path style="fill:none;stroke-width:0.85;stroke-linecap:round;stroke-linejoin:round;stroke:rgb(0%,75.294118%,100%);stroke-opacity:1;comp-op:src;clip-to-self:true;stroke-miterlimit:10;" d="M 177.964844 115.976562 L 177.964844 126.550781 "/>
<path style="fill:none;stroke-width:0.85;stroke-linecap:round;stroke-linejoin:round;stroke:rgb(0%,75.294118%,100%);stroke-opacity:1;comp-op:src;clip-to-self:true;stroke-miterlimit:10;" d="M 176.871094 111.132812 L 176.871094 111.132812 "/>
<path style="fill:none;stroke-width:0.85;stroke-linecap:round;stroke-linejoin:round;stroke:rgb(0%,75.294118%,100%);stroke-opacity:1;comp-op:src;clip-to-self:true;stroke-miterlimit:10;" d="M 185.414062 117.519531 L 185.414062 124.566406 L 185.195312 124.789062 L 184.976562 124.566406 L 184.976562 122.804688 L 185.195312 121.925781 L 185.414062 121.042969 L 185.632812 120.164062 L 185.851562 119.28125 L 186.292969 118.621094 L 186.730469 117.960938 L 187.605469 117.078125 L 188.261719 116.636719 L 188.921875 116.417969 L 189.578125 116.199219 L 191.113281 116.199219 L 191.769531 116.417969 L 192.644531 117.300781 L 193.082031 117.960938 L 193.523438 118.839844 L 193.742188 119.722656 L 193.960938 120.824219 L 194.179688 121.703125 L 194.179688 123.6875 L 193.960938 124.789062 L 193.960938 125.667969 "/>
<path style="fill:none;stroke-width:0.85;stroke-linecap:round;stroke-linejoin:round;stroke:rgb(0%,75.294118%,100%);stroke-opacity:1;comp-op:src;clip-to-self:true;stroke-miterlimit:10;" d="M 211.269531 106.285156 L 210.609375 106.945312 L 210.171875 107.828125 L 209.953125 108.265625 L 209.734375 108.929688 L 209.734375 109.367188 L 209.515625 110.03125 L 209.515625 112.011719 L 209.296875 112.671875 L 209.296875 113.554688 L 209.078125 114.433594 L 209.078125 118.839844 L 209.296875 119.5 L 209.296875 119.941406 L 209.734375 120.824219 L 209.953125 121.042969 L 210.390625 121.265625 L 210.828125 121.484375 L 211.488281 121.703125 L 212.144531 121.925781 L 214.117188 121.925781 L 214.773438 121.703125 L 215.429688 121.484375 L 216.089844 121.265625 L 216.746094 120.824219 L 217.621094 120.164062 L 218.5 119.5 L 219.8125 118.179688 L 220.46875 117.300781 L 221.128906 116.417969 L 221.566406 115.757812 L 222.003906 114.875 L 222.441406 113.996094 L 222.660156 113.113281 L 222.878906 112.234375 L 223.097656 111.351562 "/>
<path style="fill:none;stroke-width:0.85;stroke-linecap:round;stroke-linejoin:round;stroke:rgb(0%,75.294118%,100%);stroke-opacity:1;comp-op:src;clip-to-self:true;stroke-miterlimit:10;" d="M 218.5 109.589844 L 218.5 111.132812 L 218.277344 111.792969 L 218.058594 112.671875 L 217.839844 113.996094 L 217.621094 115.316406 L 217.402344 116.859375 L 217.183594 118.398438 L 216.964844 119.941406 L 216.527344 121.484375 L 215.871094 123.464844 L 215.429688 125.667969 L 214.117188 130.074219 L 213.460938 131.835938 L 213.019531 134.039062 L 212.800781 135.582031 "/>
<path style="fill:none;stroke-width:0.85;stroke-linecap:round;stroke-linejoin:round;stroke:rgb(0%,75.294118%,100%);stroke-opacity:1;comp-op:src;clip-to-self:true;stroke-miterlimit:10;" d="M 288.828125 117.300781 L 288.609375 117.078125 L 288.390625 116.859375 L 288.171875 116.636719 L 287.292969 115.757812 L 286.855469 115.535156 L 286.417969 115.316406 L 283.789062 115.316406 L 283.351562 115.535156 L 282.914062 115.757812 L 282.253906 116.199219 L 281.597656 116.636719 L 280.722656 117.519531 L 280.285156 118.179688 L 279.84375 118.839844 L 279.625 119.722656 L 279.1875 121.042969 L 279.1875 121.703125 L 279.40625 122.367188 L 280.0625 124.347656 L 280.503906 125.007812 L 280.941406 125.667969 L 282.253906 126.550781 L 283.132812 126.992188 L 284.007812 127.433594 L 285.101562 127.652344 L 287.074219 127.652344 L 288.171875 127.433594 L 289.046875 127.210938 "/>
<path style="fill:none;stroke-width:0.85;stroke-linecap:round;stroke-linejoin:round;stroke:rgb(0%,75.294118%,100%);stroke-opacity:1;comp-op:src;clip-to-self:true;stroke-miterlimit:10;" d="M 305.699219 119.722656 L 305.480469 119.5 L 305.042969 119.0625 L 304.820312 118.621094 L 304.601562 118.179688 L 304.382812 117.960938 L 303.945312 117.738281 L 303.507812 117.519531 L 303.289062 117.300781 L 302.191406 117.300781 L 301.535156 117.519531 L 300.660156 117.738281 L 299.78125 117.960938 L 299.125 118.398438 L 298.25 119.0625 L 297.371094 119.941406 L 296.496094 120.824219 L 295.839844 121.484375 L 295.183594 122.367188 L 294.742188 123.246094 L 294.523438 124.128906 L 294.304688 124.789062 L 294.085938 125.667969 L 294.085938 126.332031 L 294.304688 126.992188 L 294.742188 127.652344 L 295.183594 128.09375 L 295.839844 128.53125 L 296.714844 128.753906 L 297.59375 128.972656 L 298.46875 128.972656 L 299.5625 128.753906 L 300.878906 128.53125 L 301.972656 128.09375 L 303.289062 127.652344 L 304.601562 126.992188 L 305.917969 126.332031 L 307.011719 125.667969 L 307.890625 125.230469 L 309.203125 124.347656 L 309.640625 123.90625 L 310.082031 123.246094 L 310.082031 122.367188 L 309.859375 121.925781 L 309.203125 121.265625 L 308.328125 120.601562 L 307.230469 119.941406 L 306.355469 119.5 L 305.480469 119.28125 L 304.820312 119.0625 L 302.632812 119.0625 "/>
<path style="fill:none;stroke-width:0.85;stroke-linecap:round;stroke-linejoin:round;stroke:rgb(0%,75.294118%,100%);stroke-opacity:1;comp-op:src;clip-to-self:true;stroke-miterlimit:10;" d="M 322.789062 116.859375 L 321.910156 116.859375 L 321.253906 117.078125 L 320.378906 117.078125 L 319.71875 117.300781 L 318.40625 117.738281 L 317.75 117.960938 L 317.308594 118.179688 L 316.871094 118.398438 L 316.433594 118.621094 L 316.214844 118.839844 L 315.996094 119.0625 L 315.996094 119.5 L 316.214844 119.941406 L 316.433594 120.164062 L 316.652344 120.382812 L 317.089844 120.824219 L 317.53125 121.265625 L 318.40625 121.703125 L 318.84375 121.925781 L 319.28125 122.144531 L 319.71875 122.367188 L 320.160156 122.585938 L 320.597656 122.804688 L 320.816406 123.027344 L 321.035156 123.246094 L 320.378906 123.90625 L 319.5 124.347656 L 318.40625 124.566406 L 317.53125 124.789062 L 316.652344 125.007812 L 315.996094 125.230469 L 314.460938 125.230469 "/>
<path style="fill:none;stroke-width:0.85;stroke-linecap:round;stroke-linejoin:round;stroke:rgb(0%,75.294118%,100%);stroke-opacity:1;comp-op:src;clip-to-self:true;stroke-miterlimit:10;" d="M 338.34375 112.894531 L 338.125 113.554688 L 337.90625 113.996094 L 337.46875 114.65625 L 337.027344 115.316406 L 336.589844 116.199219 L 336.152344 117.078125 L 335.714844 117.960938 L 335.277344 118.839844 L 335.058594 119.5 L 334.839844 120.164062 L 334.617188 120.824219 L 334.398438 121.484375 L 334.398438 124.347656 L 334.617188 124.789062 L 334.839844 125.230469 L 335.058594 125.667969 L 335.496094 126.332031 L 336.152344 126.769531 L 336.808594 127.210938 L 337.46875 127.652344 L 338.34375 127.871094 L 339.21875 128.09375 L 340.753906 128.09375 L 341.628906 127.871094 L 342.507812 127.652344 L 343.601562 127.433594 L 344.476562 126.992188 L 345.574219 126.332031 L 346.667969 125.667969 L 347.546875 125.007812 L 348.640625 124.128906 L 349.515625 123.246094 L 350.394531 122.144531 L 351.050781 121.042969 L 351.488281 119.941406 L 351.925781 118.621094 L 352.148438 117.519531 L 352.367188 116.417969 L 352.367188 115.535156 L 352.585938 114.875 "/>
<path style="fill:none;stroke-width:0.85;stroke-linecap:round;stroke-linejoin:round;stroke:rgb(0%,75.294118%,100%);stroke-opacity:1;comp-op:src;clip-to-self:true;stroke-miterlimit:10;" d="M 347.984375 113.113281 L 347.984375 114.214844 L 347.765625 114.875 L 347.546875 115.976562 L 347.105469 117.300781 L 346.667969 118.839844 L 346.230469 120.164062 L 345.792969 121.703125 L 345.136719 123.464844 L 344.476562 125.667969 L 343.820312 127.871094 L 342.945312 130.074219 L 342.066406 131.835938 L 340.972656 133.820312 L 340.097656 135.800781 L 339.21875 137.34375 L 338.5625 138.886719 L 338.125 139.765625 "/>
<path style="fill:none;stroke-width:0.85;stroke-linecap:round;stroke-linejoin:round;stroke:rgb(0%,75.294118%,100%);stroke-opacity:1;comp-op:src;clip-to-self:true;stroke-miterlimit:10;" d="M 422.914062 114.875 L 422.695312 114.65625 L 422.476562 114.433594 L 422.257812 114.214844 L 422.039062 113.773438 L 421.601562 113.332031 L 421.160156 113.113281 L 420.722656 112.894531 L 420.285156 112.671875 L 420.066406 112.453125 L 418.75 112.453125 L 418.09375 112.671875 L 417.4375 112.894531 L 416.78125 113.113281 L 415.902344 113.554688 L 415.246094 113.996094 L 414.371094 114.65625 L 413.492188 115.316406 L 412.617188 115.976562 L 411.742188 116.859375 L 411.082031 117.738281 L 410.425781 118.621094 L 409.988281 119.5 L 409.550781 120.382812 L 409.332031 121.265625 L 409.113281 121.925781 L 408.890625 122.585938 L 408.890625 124.128906 L 409.113281 124.789062 L 409.332031 125.449219 L 410.207031 126.769531 L 410.863281 127.433594 L 411.519531 127.871094 L 412.179688 128.3125 L 412.835938 128.753906 L 413.492188 128.972656 L 414.152344 129.195312 L 414.808594 129.414062 L 416.339844 129.414062 L 417.21875 129.195312 L 418.09375 128.972656 L 418.96875 128.753906 L 419.847656 128.3125 L 420.722656 127.871094 L 421.601562 127.433594 L 422.257812 126.769531 L 422.914062 126.109375 L 423.789062 124.789062 L 424.011719 123.90625 L 424.230469 123.027344 L 424.667969 120.824219 L 424.667969 116.859375 L 424.449219 116.199219 L 424.230469 115.535156 L 423.789062 114.875 L 423.351562 114.214844 L 422.695312 113.554688 "/>
<path style="fill:none;stroke-width:0.85;stroke-linecap:round;stroke-linejoin:round;stroke:rgb(0%,75.294118%,100%);stroke-opacity:1;comp-op:src;clip-to-self:true;stroke-miterlimit:10;" d="M 482.070312 120.824219 L 482.070312 122.144531 L 482.289062 122.585938 L 482.507812 123.246094 L 482.945312 123.90625 L 483.382812 124.789062 L 484.042969 125.890625 L 484.699219 126.992188 L 485.355469 127.871094 L 486.015625 128.753906 L 486.890625 130.074219 L 487.328125 130.957031 "/>
<path style="fill:none;stroke-width:0.85;stroke-linecap:round;stroke-linejoin:round;stroke:rgb(0%,75.294118%,100%);stroke-opacity:1;comp-op:src;clip-to-self:true;stroke-miterlimit:10;" d="M 492.585938 120.824219 L 492.367188 121.042969 L 492.148438 121.265625 L 491.929688 121.484375 L 491.492188 122.367188 L 491.273438 122.804688 L 491.054688 123.464844 L 490.613281 124.566406 L 489.957031 125.667969 L 489.082031 126.992188 L 488.203125 128.53125 L 486.015625 131.617188 L 484.917969 132.9375 L 484.042969 134.480469 L 483.164062 136.023438 L 482.507812 137.566406 "/>
<path style="fill:none;stroke-width:0.85;stroke-linecap:round;stroke-linejoin:round;stroke:rgb(0%,75.294118%,100%);stroke-opacity:1;comp-op:src;clip-to-self:true;stroke-miterlimit:10;" d="M 504.417969 127.210938 L 504.417969 127.871094 L 504.199219 128.53125 L 503.980469 129.414062 L 503.761719 130.074219 L 503.761719 130.957031 L 503.542969 131.835938 L 503.542969 132.71875 L 503.324219 133.597656 L 503.324219 134.699219 L 503.101562 135.800781 L 503.101562 139.105469 "/>
<path style="fill:none;stroke-width:0.85;stroke-linecap:round;stroke-linejoin:round;stroke:rgb(0%,75.294118%,100%);stroke-opacity:1;comp-op:src;clip-to-self:true;stroke-miterlimit:10;" d="M 503.542969 127.210938 L 504.636719 127.210938 L 505.292969 126.992188 L 506.171875 126.769531 L 510.332031 126.769531 L 510.773438 126.992188 L 511.210938 127.210938 L 511.429688 127.433594 L 511.648438 127.652344 L 511.867188 128.09375 L 511.867188 129.195312 L 511.648438 129.632812 L 511.429688 130.296875 L 510.992188 130.957031 L 510.550781 131.617188 L 509.675781 132.9375 L 509.238281 133.378906 L 509.019531 133.597656 L 508.582031 133.820312 L 507.703125 134.699219 L 507.703125 135.140625 L 507.921875 135.582031 L 508.363281 136.023438 L 509.019531 136.464844 L 509.894531 137.125 L 511.210938 137.785156 L 512.304688 138.226562 L 513.621094 138.664062 L 515.152344 139.328125 L 516.46875 139.765625 L 517.78125 140.207031 L 519.316406 140.648438 "/>
<path style="fill:none;stroke-width:0.85;stroke-linecap:round;stroke-linejoin:round;stroke:rgb(0%,75.294118%,100%);stroke-opacity:1;comp-op:src;clip-to-self:true;stroke-miterlimit:10;" d="M 171.832031 142.632812 L 171.613281 142.410156 L 171.394531 142.191406 L 170.953125 141.96875 L 170.515625 141.75 L 169.859375 141.53125 L 166.792969 141.53125 L 166.355469 141.75 L 165.695312 141.96875 L 164.382812 142.851562 L 163.945312 143.292969 L 163.503906 143.730469 L 163.066406 144.394531 L 162.628906 144.832031 L 162.191406 145.496094 L 161.753906 146.816406 L 161.753906 149.019531 L 162.410156 151 L 162.628906 151.664062 L 163.066406 152.324219 L 163.503906 152.765625 L 163.722656 153.203125 L 164.164062 153.425781 L 164.601562 153.644531 L 165.257812 153.863281 L 166.792969 153.863281 L 167.667969 153.644531 L 168.765625 153.203125 L 169.640625 152.765625 L 170.515625 152.101562 L 171.394531 151.441406 L 172.707031 150.121094 L 173.144531 149.460938 L 173.582031 148.796875 L 173.804688 147.917969 L 174.242188 146.597656 L 174.460938 145.714844 L 174.460938 144.394531 L 174.242188 143.730469 L 174.242188 143.292969 L 173.804688 142.410156 L 173.363281 142.191406 L 172.488281 141.96875 L 171.171875 142.191406 "/>
<path style="fill:none;stroke-width:0.85;stroke-linecap:round;stroke-linejoin:round;stroke:rgb(0%,75.294118%,100%);stroke-opacity:1;comp-op:src;clip-to-self:true;stroke-miterlimit:10;" d="M 291.457031 143.292969 L 291.457031 142.851562 L 291.019531 141.96875 L 290.800781 141.53125 L 290.582031 141.308594 L 290.363281 141.089844 L 289.921875 140.867188 L 289.484375 140.648438 L 288.828125 140.429688 L 288.171875 140.207031 L 287.074219 140.207031 L 285.980469 140.429688 L 284.882812 140.648438 L 284.007812 141.089844 L 283.351562 141.53125 L 282.691406 142.191406 L 281.378906 143.511719 L 280.941406 144.394531 L 280.503906 145.273438 L 280.285156 146.15625 L 280.0625 147.035156 L 280.0625 149.679688 L 280.285156 150.339844 L 280.503906 151 L 280.722656 151.664062 L 281.160156 152.324219 L 281.816406 152.765625 L 282.691406 153.203125 L 283.570312 153.644531 L 284.882812 153.863281 L 285.980469 154.085938 L 287.734375 154.085938 L 288.390625 153.863281 L 289.046875 153.644531 L 289.703125 153.203125 L 290.363281 152.765625 L 291.019531 152.324219 L 291.457031 151.664062 L 291.894531 151.222656 L 292.332031 150.5625 L 292.550781 149.898438 L 292.773438 149.238281 L 292.773438 147.917969 L 292.550781 147.257812 L 292.332031 146.597656 L 292.113281 146.15625 L 291.894531 145.496094 L 291.675781 144.832031 L 291.238281 143.511719 L 291.238281 142.851562 "/>
<path style="fill:none;stroke-width:0.85;stroke-linecap:round;stroke-linejoin:round;stroke:rgb(0%,75.294118%,100%);stroke-opacity:1;comp-op:src;clip-to-self:true;stroke-miterlimit:10;" d="M 414.589844 135.800781 L 414.589844 139.105469 L 414.808594 139.988281 L 414.808594 143.953125 L 415.027344 145.273438 L 415.027344 146.597656 L 414.808594 147.917969 L 414.808594 150.121094 "/>
<path style="fill:none;stroke-width:0.85;stroke-linecap:round;stroke-linejoin:round;stroke:rgb(0%,75.294118%,100%);stroke-opacity:1;comp-op:src;clip-to-self:true;stroke-miterlimit:10;" d="M 493.464844 143.511719 L 493.242188 143.292969 L 493.023438 143.070312 L 492.148438 142.632812 L 491.710938 142.410156 L 491.273438 142.191406 L 490.835938 141.96875 L 490.394531 141.75 L 489.082031 141.75 L 488.425781 141.96875 L 487.765625 142.410156 L 487.109375 142.851562 L 486.234375 143.292969 L 485.355469 143.953125 L 484.480469 144.832031 L 483.824219 145.714844 L 482.945312 146.816406 L 481.632812 149.019531 L 481.195312 150.121094 L 480.976562 151 L 480.753906 151.882812 L 480.753906 153.644531 L 480.976562 154.304688 L 481.414062 154.964844 L 482.070312 155.628906 L 482.726562 156.289062 L 483.824219 156.730469 L 484.699219 156.949219 L 485.792969 157.167969 L 488.203125 157.167969 L 489.300781 156.949219 L 490.613281 156.730469 L 491.710938 156.289062 L 492.804688 155.847656 L 493.902344 155.1875 L 494.777344 154.527344 L 495.433594 153.863281 L 495.875 152.984375 L 496.3125 152.324219 L 496.53125 151.441406 L 496.53125 149.679688 L 496.3125 148.796875 L 496.09375 148.136719 L 495.652344 147.257812 L 495.214844 146.597656 L 494.558594 145.933594 L 493.902344 145.273438 "/>
<path style="fill:none;stroke-width:0.85;stroke-linecap:round;stroke-linejoin:round;stroke:rgb(0%,75.294118%,100%);stroke-opacity:1;comp-op:src;clip-to-self:true;stroke-miterlimit:10;" d="M 175.773438 167.964844 L 175.554688 167.523438 L 175.335938 167.300781 L 175.117188 166.863281 L 174.242188 165.097656 L 173.363281 164.21875 L 172.925781 163.777344 L 172.269531 163.335938 L 171.394531 163.117188 L 170.515625 162.898438 L 169.640625 162.898438 L 168.765625 163.117188 L 167.886719 163.335938 L 167.011719 163.777344 L 165.914062 164.4375 L 165.039062 165.320312 L 164.382812 166.421875 L 163.722656 167.523438 L 163.285156 168.625 L 162.847656 170.828125 L 162.847656 173.25 L 163.066406 173.910156 L 163.503906 174.792969 L 163.945312 175.230469 L 164.382812 175.453125 L 165.257812 175.671875 L 167.667969 175.671875 L 169.203125 175.453125 L 170.515625 175.011719 L 171.832031 174.351562 L 172.707031 173.691406 L 173.582031 172.808594 L 174.460938 171.707031 L 175.117188 170.605469 L 175.554688 169.726562 L 175.992188 168.84375 L 176.214844 167.964844 L 176.214844 166.199219 L 175.992188 165.320312 L 175.554688 164.660156 L 174.898438 163.996094 L 173.804688 163.558594 L 172.707031 163.117188 L 170.953125 163.117188 "/>
<path style="fill:none;stroke-width:0.85;stroke-linecap:round;stroke-linejoin:round;stroke:rgb(0%,75.294118%,100%);stroke-opacity:1;comp-op:src;clip-to-self:true;stroke-miterlimit:10;" d="M 292.332031 162.898438 L 292.113281 162.675781 L 291.894531 162.457031 L 291.457031 162.234375 L 291.019531 162.015625 L 290.144531 161.796875 L 289.046875 161.574219 L 287.734375 161.574219 L 286.417969 161.796875 L 285.101562 162.015625 L 284.007812 162.234375 L 282.914062 162.675781 L 282.035156 163.117188 L 280.285156 164.4375 L 279.625 165.097656 L 278.75 165.980469 L 278.3125 166.863281 L 277.875 167.742188 L 277.652344 168.625 L 277.433594 169.503906 L 277.433594 170.386719 L 277.652344 171.265625 L 278.09375 172.148438 L 278.96875 173.46875 L 279.625 174.128906 L 280.503906 174.792969 L 281.597656 175.230469 L 282.691406 175.671875 L 283.789062 175.894531 L 285.101562 176.113281 L 287.074219 176.113281 L 287.953125 175.894531 L 288.828125 175.671875 L 289.484375 175.230469 L 290.144531 174.570312 L 291.457031 173.25 L 291.894531 172.367188 L 292.332031 171.707031 L 292.773438 170.828125 L 293.210938 169.0625 L 293.210938 165.761719 L 292.992188 164.660156 L 292.773438 163.777344 L 292.550781 162.898438 L 292.332031 162.234375 L 292.113281 161.796875 L 291.675781 161.355469 "/>
<path style="fill:none;stroke-width:0.85;stroke-linecap:round;stroke-linejoin:round;stroke:rgb(0%,75.294118%,100%);stroke-opacity:1;comp-op:src;clip-to-self:true;stroke-miterlimit:10;" d="M 421.160156 163.117188 L 420.941406 162.898438 L 420.722656 162.675781 L 420.503906 162.457031 L 420.066406 162.015625 L 419.628906 161.796875 L 419.191406 161.355469 L 418.75 161.132812 L 418.3125 160.695312 L 417.875 160.472656 L 417.21875 160.253906 L 416.339844 160.03125 L 414.808594 160.03125 L 413.273438 160.253906 L 411.742188 160.695312 L 410.425781 161.132812 L 409.332031 161.796875 L 408.453125 162.457031 L 407.796875 163.117188 L 407.140625 163.996094 L 406.703125 164.878906 L 406.261719 165.980469 L 405.824219 168.183594 L 405.605469 169.503906 L 405.605469 171.707031 L 405.824219 172.367188 L 406.042969 173.25 L 406.480469 173.910156 L 407.140625 174.570312 L 408.015625 175.230469 L 409.113281 175.671875 L 410.425781 176.113281 L 411.742188 176.332031 L 413.710938 176.332031 L 414.371094 176.113281 L 415.027344 175.894531 L 415.902344 175.671875 L 416.5625 175.230469 L 417.875 173.910156 L 418.53125 172.808594 L 418.96875 171.707031 L 419.191406 170.605469 L 419.410156 169.503906 L 419.410156 165.761719 L 419.191406 164.4375 L 419.191406 163.335938 L 418.96875 162.234375 L 418.75 161.355469 L 418.3125 160.695312 "/>
<path style="fill:none;stroke-width:0.85;stroke-linecap:round;stroke-linejoin:round;stroke:rgb(0%,75.294118%,100%);stroke-opacity:1;comp-op:src;clip-to-self:true;stroke-miterlimit:10;" d="M 486.453125 163.558594 L 486.890625 164.878906 L 487.109375 165.980469 L 487.328125 167.300781 L 487.546875 168.84375 L 487.984375 170.828125 L 488.203125 172.367188 L 488.425781 173.910156 L 488.644531 175.453125 L 488.863281 177.433594 L 489.300781 180.519531 L 489.300781 182.722656 "/>
<path style="fill:none;stroke-width:0.85;stroke-linecap:round;stroke-linejoin:round;stroke:rgb(0%,75.294118%,100%);stroke-opacity:1;comp-op:src;clip-to-self:true;stroke-miterlimit:10;" d="M 512.960938 72.582031 L 514.496094 72.582031 L 516.03125 72.363281 L 517.5625 72.140625 L 518.878906 71.921875 L 520.191406 71.699219 L 522.164062 71.480469 L 524.136719 71.480469 L 526.109375 71.261719 L 527.640625 71.039062 L 528.957031 71.039062 L 530.050781 70.820312 L 537.941406 70.820312 L 538.597656 71.039062 L 539.035156 71.039062 L 539.472656 71.261719 L 539.910156 71.699219 L 540.128906 71.921875 L 540.347656 72.140625 L 540.570312 72.582031 L 540.570312 74.566406 L 540.347656 75.667969 L 540.128906 76.765625 L 539.910156 78.089844 L 539.691406 79.191406 L 539.472656 80.511719 L 539.253906 82.054688 L 539.253906 87.78125 L 539.472656 89.542969 L 539.691406 91.746094 L 539.910156 94.167969 L 540.128906 97.035156 L 540.347656 99.457031 L 540.789062 102.320312 L 541.007812 105.625 L 541.226562 108.707031 L 541.445312 111.792969 L 541.664062 115.535156 L 541.882812 118.839844 L 542.101562 121.925781 L 542.101562 139.328125 L 541.882812 142.410156 L 541.664062 145.714844 L 541.445312 149.460938 L 541.226562 152.542969 L 541.007812 155.628906 L 540.789062 158.710938 L 540.570312 161.796875 L 540.128906 164.4375 L 539.691406 167.523438 L 539.253906 170.386719 L 538.816406 172.589844 L 538.160156 174.792969 L 537.5 176.996094 L 537.0625 178.976562 L 536.40625 180.738281 L 535.96875 182.28125 L 535.75 183.382812 L 535.53125 184.265625 L 535.308594 185.144531 L 534.871094 186.464844 L 534.433594 187.347656 L 534.214844 187.566406 L 533.996094 187.789062 L 533.777344 188.007812 L 533.339844 188.230469 L 511.429688 188.230469 "/>
<path style="fill:none;stroke-width:0.85;stroke-linecap:round;stroke-linejoin:round;stroke:rgb(0%,75.294118%,100%);stroke-opacity:1;comp-op:src;clip-to-self:true;stroke-miterlimit:10;" d="M 87.042969 18.171875 L 87.480469 18.394531 L 87.917969 18.613281 L 88.355469 19.054688 L 89.011719 19.496094 L 89.671875 20.15625 L 90.984375 21.476562 L 91.640625 22.359375 L 92.300781 23.238281 L 93.613281 25.003906 L 94.269531 25.882812 L 95.148438 26.765625 L 96.023438 27.425781 L 96.902344 28.304688 L 97.777344 28.96875 "/>
<path style="fill:none;stroke-width:0.85;stroke-linecap:round;stroke-linejoin:round;stroke:rgb(0%,75.294118%,100%);stroke-opacity:1;comp-op:src;clip-to-self:true;stroke-miterlimit:10;" d="M 97.339844 14.429688 L 96.679688 15.089844 L 96.242188 15.53125 L 95.804688 15.96875 L 95.367188 16.410156 L 94.710938 17.070312 L 94.050781 17.734375 L 93.394531 18.394531 L 92.738281 19.273438 L 91.859375 20.375 L 90.984375 21.699219 L 90.109375 23.019531 L 89.230469 24.121094 L 88.355469 25.222656 L 87.699219 26.101562 L 87.261719 26.984375 L 86.820312 27.644531 L 86.601562 28.304688 L 86.382812 28.746094 "/>
<path style="fill:none;stroke-width:0.85;stroke-linecap:round;stroke-linejoin:round;stroke:rgb(0%,75.294118%,100%);stroke-opacity:1;comp-op:src;clip-to-self:true;stroke-miterlimit:10;" d="M 106.757812 23.019531 L 107.417969 23.019531 L 108.074219 23.238281 L 108.949219 23.238281 L 109.828125 23.460938 L 110.921875 23.460938 L 112.238281 23.679688 L 117.496094 23.679688 "/>
<path style="fill:none;stroke-width:0.85;stroke-linecap:round;stroke-linejoin:round;stroke:rgb(0%,75.294118%,100%);stroke-opacity:1;comp-op:src;clip-to-self:true;stroke-miterlimit:10;" d="M 126.039062 16.632812 L 126.257812 16.851562 L 126.476562 17.292969 L 126.917969 17.953125 L 127.574219 19.054688 L 128.230469 20.375 L 128.886719 21.699219 L 129.546875 23.238281 L 130.203125 24.339844 L 130.640625 25.222656 L 131.078125 26.101562 L 131.515625 27.867188 "/>
<path style="fill:none;stroke-width:0.85;stroke-linecap:round;stroke-linejoin:round;stroke:rgb(0%,75.294118%,100%);stroke-opacity:1;comp-op:src;clip-to-self:true;stroke-miterlimit:10;" d="M 141.816406 15.308594 L 141.597656 15.75 L 141.375 16.191406 L 140.5 17.511719 L 140.0625 18.394531 L 139.625 19.273438 L 139.1875 20.15625 L 138.527344 21.257812 L 137.214844 23.460938 L 136.777344 24.5625 L 136.335938 25.664062 L 135.679688 26.984375 L 135.242188 28.746094 L 134.585938 30.507812 L 133.925781 32.492188 L 133.050781 34.472656 L 132.175781 36.457031 L 131.296875 38.4375 "/>
<path style="fill:none;stroke-width:0.85;stroke-linecap:round;stroke-linejoin:round;stroke:rgb(0%,75.294118%,100%);stroke-opacity:1;comp-op:src;clip-to-self:true;stroke-miterlimit:10;" d="M 156.496094 20.816406 L 157.371094 21.035156 L 158.464844 21.257812 L 161.09375 21.257812 L 162.410156 21.035156 "/>
<path style="fill:none;stroke-width:0.85;stroke-linecap:round;stroke-linejoin:round;stroke:rgb(0%,75.294118%,100%);stroke-opacity:1;comp-op:src;clip-to-self:true;stroke-miterlimit:10;" d="M 172.925781 14.429688 L 173.582031 14.429688 L 174.242188 14.648438 L 175.117188 14.867188 L 176.433594 15.089844 L 177.964844 15.308594 L 179.5 15.53125 L 181.253906 15.75 L 182.566406 15.96875 L 183.882812 16.191406 L 184.976562 16.191406 L 185.851562 16.410156 L 186.730469 16.632812 L 188.042969 17.070312 L 188.480469 17.292969 L 188.703125 17.511719 L 188.703125 17.953125 L 188.480469 18.394531 L 188.042969 19.496094 L 187.167969 20.816406 L 186.070312 22.359375 L 184.757812 23.679688 L 183.441406 25.003906 L 182.347656 26.101562 L 181.472656 26.984375 L 180.59375 27.867188 L 179.28125 29.1875 L 178.84375 29.847656 L 178.402344 30.507812 L 177.964844 31.390625 L 178.183594 31.832031 L 178.621094 32.050781 L 179.71875 32.269531 L 181.03125 32.492188 L 182.566406 32.492188 L 184.101562 32.269531 L 185.851562 32.050781 L 187.824219 31.832031 L 191.113281 31.832031 "/>
<path style="fill:none;stroke-width:0.85;stroke-linecap:round;stroke-linejoin:round;stroke:rgb(0%,75.294118%,100%);stroke-opacity:1;comp-op:src;clip-to-self:true;stroke-miterlimit:10;" d="M 182.128906 21.917969 L 183.003906 22.136719 L 184.101562 22.359375 L 185.851562 22.578125 L 187.824219 22.800781 "/>
<path style="fill:none;stroke-width:0.85;stroke-linecap:round;stroke-linejoin:round;stroke:rgb(0%,75.294118%,100%);stroke-opacity:1;comp-op:src;clip-to-self:true;stroke-miterlimit:10;" d="M 133.488281 39.320312 L 133.269531 39.101562 L 132.832031 38.878906 L 132.394531 38.660156 L 131.957031 38.4375 L 131.296875 38.21875 L 128.011719 38.21875 L 127.355469 38.4375 L 126.699219 38.660156 L 126.039062 38.878906 L 124.726562 39.761719 L 124.066406 40.421875 L 123.410156 41.300781 L 122.753906 42.402344 L 122.316406 43.726562 L 121.660156 45.269531 L 121.21875 46.808594 L 120.78125 48.132812 L 120.5625 49.671875 L 120.5625 52.535156 L 121 54.738281 L 121.21875 55.621094 L 121.660156 56.5 L 122.097656 57.164062 L 123.410156 58.484375 L 124.289062 59.144531 L 126.476562 60.027344 L 127.792969 60.246094 L 130.640625 60.246094 L 131.296875 60.027344 L 131.957031 59.585938 L 132.613281 59.144531 L 133.269531 58.484375 L 134.148438 57.601562 L 134.804688 56.5 L 135.460938 55.621094 L 135.898438 54.519531 L 136.335938 53.636719 L 136.777344 52.757812 L 136.996094 51.875 L 137.214844 50.996094 L 137.433594 50.113281 L 137.652344 49.011719 L 137.871094 48.132812 L 137.871094 45.046875 L 137.214844 43.066406 L 136.996094 42.625 L 136.558594 41.964844 L 136.117188 41.523438 L 135.898438 41.082031 L 135.679688 40.863281 L 135.242188 40.640625 L 134.585938 40.421875 L 133.488281 40.203125 "/>
<path style="fill:none;stroke-width:0.85;stroke-linecap:round;stroke-linejoin:round;stroke:rgb(0%,75.294118%,100%);stroke-opacity:1;comp-op:src;clip-to-self:true;stroke-miterlimit:10;" d="M 123.191406 49.671875 L 123.410156 49.453125 L 123.847656 49.234375 L 124.507812 49.011719 L 125.601562 48.792969 L 126.917969 48.570312 L 128.449219 48.351562 L 131.078125 48.351562 L 132.394531 48.570312 L 137.652344 48.570312 L 139.1875 48.351562 L 140.71875 48.132812 "/>
<path style="fill:none;stroke-width:0.85;stroke-linecap:round;stroke-linejoin:round;stroke:rgb(100%,0%,0%);stroke-opacity:1;comp-op:src;clip-to-self:true;stroke-miterlimit:10;" d="M 474.183594 126.332031 L 476.375 126.332031 L 467.171875 126.332031 L 466.515625 126.109375 L 464.324219 126.109375 L 475.496094 126.109375 "/>
<path style="fill:none;stroke-width:0.85;stroke-linecap:round;stroke-linejoin:round;stroke:rgb(0%,75.294118%,100%);stroke-opacity:1;comp-op:src;clip-to-self:true;stroke-miterlimit:10;" d="M 177.089844 38.4375 L 176.871094 39.101562 L 176.652344 39.539062 L 176.433594 40.203125 L 176.214844 40.863281 L 175.992188 41.742188 L 175.773438 42.402344 L 175.554688 43.066406 L 175.117188 44.386719 L 174.898438 44.828125 L 174.898438 46.367188 L 175.117188 47.03125 L 175.554688 48.351562 L 175.992188 49.011719 L 176.652344 49.671875 L 177.527344 50.554688 L 178.621094 51.214844 L 179.9375 51.875 L 181.03125 52.316406 L 181.910156 52.757812 L 182.785156 52.976562 L 183.441406 53.199219 L 184.101562 53.417969 L 186.730469 53.417969 L 187.167969 53.199219 L 187.824219 52.976562 L 188.261719 52.757812 L 188.703125 52.535156 L 189.140625 52.316406 L 190.453125 51.433594 L 191.113281 50.773438 L 191.769531 50.113281 L 192.425781 49.234375 L 193.300781 47.46875 L 193.960938 46.367188 L 194.617188 45.046875 L 195.492188 42.84375 L 195.929688 41.523438 "/>
<path style="fill:none;stroke-width:0.85;stroke-linecap:round;stroke-linejoin:round;stroke:rgb(0%,75.294118%,100%);stroke-opacity:1;comp-op:src;clip-to-self:true;stroke-miterlimit:10;" d="M 186.070312 39.320312 L 186.070312 41.523438 L 185.851562 42.625 L 185.851562 45.707031 L 185.414062 48.792969 L 185.414062 50.335938 L 185.195312 52.316406 L 184.976562 54.078125 L 184.757812 55.621094 L 184.320312 57.164062 L 183.882812 59.144531 L 183.441406 61.128906 L 183.003906 62.890625 L 182.785156 64.871094 "/>
<path style="fill:none;stroke-width:0.85;stroke-linecap:round;stroke-linejoin:round;stroke:rgb(0%,75.294118%,100%);stroke-opacity:1;comp-op:src;clip-to-self:true;stroke-miterlimit:10;" d="M 98.433594 34.472656 L 98.433594 34.914062 L 98.214844 35.574219 L 97.996094 36.457031 L 97.558594 37.335938 L 97.121094 38.4375 L 96.460938 39.980469 L 95.804688 41.742188 L 95.148438 43.726562 L 94.710938 45.488281 L 94.269531 47.03125 L 93.832031 48.570312 L 93.394531 50.554688 L 92.957031 52.535156 L 92.519531 54.519531 L 92.082031 56.5 L 91.421875 58.703125 L 90.984375 60.6875 L 90.328125 62.890625 L 89.890625 64.433594 L 89.453125 65.753906 "/>
<path style="fill:none;stroke-width:0.85;stroke-linecap:round;stroke-linejoin:round;stroke:rgb(0%,75.294118%,100%);stroke-opacity:1;comp-op:src;clip-to-self:true;stroke-miterlimit:10;" d="M 103.035156 44.605469 L 92.957031 44.605469 L 91.859375 44.386719 L 90.546875 44.167969 L 89.230469 44.167969 L 87.917969 44.386719 L 86.601562 44.605469 L 85.507812 44.828125 L 84.632812 45.269531 L 83.972656 45.707031 L 82.660156 46.589844 L 82.222656 47.25 L 81.78125 47.910156 L 81.34375 48.570312 L 81.125 49.011719 L 80.90625 49.671875 L 80.90625 51.433594 L 81.125 52.097656 L 81.5625 52.757812 L 82.222656 53.199219 L 83.097656 53.859375 L 84.632812 54.519531 L 86.382812 55.179688 L 87.699219 55.621094 L 89.011719 56.0625 L 90.328125 56.28125 L 91.640625 56.5 L 94.929688 56.5 L 96.460938 56.28125 L 97.777344 56.0625 L 98.871094 55.839844 L 99.75 55.621094 L 100.40625 55.402344 L 101.0625 55.179688 L 101.71875 54.738281 L 102.378906 54.300781 L 102.816406 54.078125 L 103.253906 53.636719 L 103.691406 53.199219 L 104.128906 52.757812 L 104.351562 52.316406 L 104.789062 50.996094 L 105.007812 50.113281 L 105.007812 49.234375 L 104.789062 48.351562 L 104.351562 47.03125 L 103.910156 46.367188 L 103.472656 45.929688 L 102.378906 45.269531 L 100.40625 44.605469 L 98.214844 44.386719 L 95.804688 44.386719 L 93.175781 44.605469 "/>
<path style="fill:none;stroke-width:0.85;stroke-linecap:round;stroke-linejoin:round;stroke:rgb(0%,75.294118%,100%);stroke-opacity:1;comp-op:src;clip-to-self:true;stroke-miterlimit:10;" d="M 493.242188 34.253906 L 493.242188 34.253906 "/>
<path style="fill:none;stroke-width:0.85;stroke-linecap:round;stroke-linejoin:round;stroke:rgb(0%,75.294118%,100%);stroke-opacity:1;comp-op:src;clip-to-self:true;stroke-miterlimit:10;" d="M 320.160156 12.003906 L 320.160156 13.328125 L 319.941406 13.988281 L 319.71875 14.867188 L 319.28125 16.632812 L 318.84375 17.511719 L 318.625 18.394531 L 318.1875 19.273438 L 317.75 20.15625 L 317.53125 21.035156 L 317.308594 21.917969 L 316.871094 22.800781 L 316.652344 23.679688 L 316.214844 24.5625 L 315.996094 25.441406 L 315.777344 26.324219 L 315.558594 27.203125 L 315.339844 28.085938 L 315.121094 29.1875 L 314.898438 30.070312 L 314.679688 30.949219 L 314.460938 31.609375 L 314.460938 33.59375 L 314.898438 34.914062 L 315.121094 35.574219 L 315.558594 36.234375 L 316.871094 37.558594 L 317.53125 38 L 317.96875 38.21875 L 318.625 38.4375 L 319.28125 38.660156 L 322.347656 38.660156 L 323.226562 38.4375 L 324.101562 38.21875 L 325.199219 38 L 326.949219 37.117188 L 327.828125 36.675781 L 328.703125 36.015625 L 329.578125 35.136719 L 330.457031 33.8125 L 331.113281 32.492188 L 331.769531 30.949219 L 332.429688 29.40625 L 333.742188 25.882812 L 334.398438 24.5625 L 335.058594 23.019531 L 335.933594 21.699219 L 337.027344 19.933594 "/>
<path style="fill:none;stroke-width:0.85;stroke-linecap:round;stroke-linejoin:round;stroke:rgb(0%,75.294118%,100%);stroke-opacity:1;comp-op:src;clip-to-self:true;stroke-miterlimit:10;" d="M 327.390625 24.78125 L 327.390625 26.542969 L 327.167969 27.425781 L 326.949219 28.527344 L 326.511719 30.070312 L 325.855469 31.832031 L 325.417969 33.8125 L 324.980469 35.796875 L 324.539062 37.777344 L 323.882812 39.980469 L 323.226562 42.402344 L 322.789062 44.605469 L 322.347656 46.808594 L 321.691406 49.234375 L 321.035156 51.65625 L 320.597656 53.636719 L 320.160156 55.179688 "/>
<path style="fill:none;stroke-width:0.85;stroke-linecap:round;stroke-linejoin:round;stroke:rgb(0%,75.294118%,100%);stroke-opacity:1;comp-op:src;clip-to-self:true;stroke-miterlimit:10;" d="M 357.1875 28.96875 L 357.625 29.1875 L 359.375 30.070312 L 360.472656 30.289062 L 361.785156 30.507812 L 363.320312 30.730469 L 365.292969 30.730469 L 367.265625 30.507812 L 369.234375 30.070312 L 371.207031 29.40625 L 372.960938 28.746094 L 374.496094 28.085938 "/>
<path style="fill:none;stroke-width:0.85;stroke-linecap:round;stroke-linejoin:round;stroke:rgb(0%,75.294118%,100%);stroke-opacity:1;comp-op:src;clip-to-self:true;stroke-miterlimit:10;" d="M 362.007812 38 L 362.882812 38 L 363.976562 37.777344 L 365.949219 37.558594 L 367.921875 37.335938 L 372.304688 36.898438 "/>
<path style="fill:none;stroke-width:0.85;stroke-linecap:round;stroke-linejoin:round;stroke:rgb(0%,75.294118%,100%);stroke-opacity:1;comp-op:src;clip-to-self:true;stroke-miterlimit:10;" d="M 430.363281 25.441406 L 429.925781 25.441406 L 429.707031 25.664062 L 425.761719 25.664062 L 424.667969 25.441406 L 423.570312 25.222656 L 422.476562 25.003906 L 421.601562 24.5625 L 420.722656 24.121094 L 420.066406 23.679688 L 419.628906 23.238281 L 418.75 22.359375 L 418.53125 22.136719 L 418.3125 21.917969 L 418.09375 21.476562 L 417.875 21.257812 L 417.875 19.496094 L 418.09375 19.054688 L 418.53125 18.394531 L 418.96875 17.953125 L 419.628906 17.511719 L 420.285156 17.070312 L 420.941406 16.632812 L 421.820312 16.191406 L 422.476562 15.96875 L 425.324219 15.96875 L 426.199219 16.191406 L 427.296875 16.410156 L 428.390625 16.632812 L 429.269531 17.070312 L 430.144531 17.292969 L 430.800781 17.511719 L 431.460938 17.953125 L 432.117188 18.394531 L 432.554688 18.835938 L 432.992188 19.273438 L 433.429688 19.714844 L 433.871094 20.375 L 434.089844 21.257812 L 434.308594 22.136719 L 434.308594 24.339844 L 434.089844 25.664062 L 433.648438 26.765625 L 432.992188 28.304688 L 432.335938 29.847656 L 431.460938 31.390625 L 430.582031 33.152344 L 429.707031 34.695312 L 429.050781 36.015625 L 428.390625 37.335938 L 427.734375 38.878906 L 426.859375 40.640625 L 425.980469 42.625 L 425.105469 44.167969 L 424.667969 45.488281 "/>
<path style="fill:none;stroke-width:0.85;stroke-linecap:round;stroke-linejoin:round;stroke:rgb(0%,75.294118%,100%);stroke-opacity:1;comp-op:src;clip-to-self:true;stroke-miterlimit:10;" d="M 459.066406 20.375 L 458.847656 20.15625 L 458.628906 19.933594 L 458.1875 19.714844 L 457.75 19.496094 L 456.875 19.273438 L 455.996094 19.054688 L 454.902344 18.835938 L 453.808594 18.613281 L 452.054688 18.613281 L 451.398438 18.835938 L 450.957031 18.835938 L 450.519531 19.054688 L 449.863281 19.496094 L 449.207031 19.933594 L 448.546875 20.597656 L 446.796875 22.800781 L 445.917969 24.121094 L 445.042969 25.664062 L 444.167969 27.644531 L 443.507812 29.628906 L 442.632812 33.152344 L 442.195312 34.472656 L 441.976562 35.355469 L 441.757812 36.234375 L 441.539062 37.117188 L 441.539062 38.878906 L 441.757812 39.761719 L 441.976562 40.640625 L 442.414062 41.300781 L 443.070312 41.964844 L 443.949219 42.625 L 444.824219 43.285156 L 445.917969 43.726562 L 447.015625 43.945312 L 448.328125 43.945312 L 449.644531 43.726562 L 450.957031 43.503906 L 452.273438 43.066406 L 453.808594 42.402344 L 455.121094 41.742188 L 456.65625 40.863281 L 457.96875 39.980469 L 459.503906 39.101562 L 461.257812 38 L 462.570312 37.117188 L 463.886719 36.015625 L 464.980469 34.695312 L 465.855469 33.59375 L 466.515625 32.492188 L 466.953125 31.390625 L 467.390625 30.507812 L 467.609375 29.847656 L 467.609375 28.085938 L 467.390625 27.203125 L 466.953125 26.324219 L 466.296875 25.441406 L 465.636719 24.78125 L 464.980469 24.121094 L 464.542969 23.460938 L 464.105469 23.019531 L 463.445312 22.359375 "/>
<path style="fill:none;stroke-width:0.85;stroke-linecap:round;stroke-linejoin:round;stroke:rgb(0%,75.294118%,100%);stroke-opacity:1;comp-op:src;clip-to-self:true;stroke-miterlimit:10;" d="M 488.425781 10.902344 L 487.984375 10.683594 L 487.109375 10.683594 L 485.792969 10.464844 L 482.507812 10.464844 L 481.195312 10.902344 L 480.753906 11.125 L 480.316406 11.34375 L 479.660156 11.785156 L 479.222656 12.003906 L 478.785156 12.445312 L 478.566406 12.886719 L 478.34375 13.328125 L 478.125 13.769531 L 477.90625 14.429688 L 477.90625 15.75 L 478.34375 16.632812 L 478.566406 17.070312 L 478.785156 17.511719 L 479.222656 17.734375 L 480.097656 18.171875 L 481.632812 18.171875 L 482.507812 17.953125 L 483.605469 17.734375 L 485.355469 16.851562 L 486.234375 16.410156 L 486.890625 15.96875 L 487.328125 15.53125 L 487.765625 15.089844 L 488.203125 14.429688 L 488.425781 13.769531 L 488.425781 12.226562 L 488.203125 11.785156 L 487.765625 11.125 "/>
</g>
</svg>
